<?xml version="1.0" encoding="UTF-8"?>
<svg id="Layer_2" data-name="Layer 2" xmlns="http://www.w3.org/2000/svg" viewBox="0 0 210.12 75.14">
  <defs>
    <style>
      .cls-1 {
        fill: #ffecd2;
      }

      .cls-2 {
        fill: #081825;
      }

      .cls-3 {
        fill: #f26522;
      }
    </style>
  </defs>
  <g id="Layer_1-2" data-name="Layer 1">
    <g>
      <g>
        <path class="cls-1" d="M16.13,6.61c3.54-1.59,6.91-1.61,9.87-1.61,1.76,0,3.48.18,5.17.54,1.68.36,3.17.9,4.45,1.61,1.28.72,2.31,1.62,3.1,2.72.78,1.09,1.18,2.38,1.18,3.85,0,1.79-.58,3.35-1.75,4.69-1.04,1.19-2.44,2.31-4.2,3.36-.28.16-.27.57,0,.73,2.68,1.52,4.58,3.08,5.72,4.69,1.22,1.73,1.84,3.61,1.84,5.64,0,2.23-.58,4.08-1.75,5.55-1.17,1.47-2.69,2.66-4.56,3.55-1.88.9-4.01,1.53-6.4,1.91-2.39.38-4.81.57-7.26.57-1.91,0-3.64-.1-5.19-.3-1.55-.2-2.96-.45-4.22-.75-1.97-.47-2.96-.69-3.5-1.04-2.02-1.33-3.73-4.96-2.24-7.95,1.07-2.16,3.53-3.43,5.31-3.16.52.08.93.26,2.38.54.84.16,1.64.24,2.41.24.83,0,1.54-.12,2.11-.36.74-.32,1.25-1.14,1.14-1.96-.07-.49-.31-.88-.73-1.17-.87-.59-1.92-.75-1.92-.75-1.51-.2-1.74.22-2.65.05-1.2-.23-2.64-1.32-2.64-2.54,0-1.27,1.53-2.31,2.68-2.62,1.04-.28,1.41.12,2.89-.32.06-.02,1.03-.33,1.75-1.01.42-.4.63-.88.63-1.43,0-.68-.3-1.13-.89-1.37-.59-.24-1.29-.36-2.09-.36-.65,0-1.33.06-2.04.18-1.32.22-1.65.38-2.07.42-1.7.17-4.07-1.89-4.39-3.88-.56-3.44,4.92-6.92,7.86-8.24Z"/>
        <path class="cls-1" d="M21.53,49.41c-2.11,0-4.07-.11-5.83-.34-1.73-.22-3.32-.51-4.74-.84l-.25-.06c-2.32-.55-3.6-.85-4.85-1.67-4.04-2.66-6.6-9.05-3.98-14.35,1.1-2.22,3-3.98,5.17-5.01-.17-.59-.27-1.22-.27-1.88,0-1.17.29-2.23.78-3.17-2.15-1.49-3.81-3.84-4.24-6.45C2.07,7.85,12.07,2.95,14.09,2.05h0C18.66,0,22.9,0,26,0c2.1,0,4.18.22,6.2.65,2.17.46,4.13,1.18,5.85,2.14,1.92,1.08,3.51,2.48,4.73,4.17,1.4,1.96,2.11,4.23,2.11,6.76,0,2.99-1.03,5.75-2.99,7.98-.07.08-.14.16-.22.24.8.76,1.48,1.54,2.06,2.35,1.83,2.59,2.75,5.46,2.75,8.53,0,3.37-.95,6.29-2.83,8.66-1.64,2.07-3.77,3.74-6.33,4.96-2.31,1.1-4.92,1.89-7.77,2.34-2.64.42-5.34.63-8.04.63ZM11.25,38.01c.42.11,1.1.28,1.77.43l.25.06c1.08.25,2.33.48,3.71.65,1.33.17,2.86.26,4.55.26,2.18,0,4.36-.17,6.48-.5,1.9-.3,3.59-.8,5.03-1.48,1.19-.57,2.1-1.27,2.8-2.15.16-.21.67-.84.67-2.45,0-.99-.29-1.87-.92-2.76-.39-.56-1.45-1.72-4.11-3.23-1.66-.94-2.72-2.72-2.74-4.65-.02-1.93.99-3.74,2.64-4.72,1.3-.78,2.31-1.57,3-2.36.37-.42.51-.81.51-1.4,0-.53-.12-.77-.24-.94-.35-.49-.84-.91-1.47-1.26-.84-.47-1.86-.83-3.05-1.09-1.34-.28-2.72-.43-4.12-.43-2.56,0-5.2,0-7.83,1.18h0c-1.35.6-2.57,1.38-3.48,2.09,2.2-.27,4.28-.11,6.02.59,2.49,1,4.03,3.31,4.03,6.01,0,1.93-.78,3.73-2.2,5.07,0,0,0,0,0,0,1.17,1.05,1.92,2.46,2.13,4.05.42,3.05-1.29,6.03-4.15,7.24-2.04.87-4.66.95-7.4.43-.92-.18-1.52-.33-1.92-.43-.14.08-.3.22-.36.35-.16.31.12,1.04.4,1.42ZM16.3,32.7s.01,0,.01,0h0s0,0-.01,0h0ZM36.4,18.14s.01,0,.02.01c0,0-.01,0-.02-.01ZM15.95,17.54h0,0Z"/>
      </g>
      <g>
        <path class="cls-1" d="M77.02,21.06c-1.84-.4-3.5-.6-4.99-.6-2.1,0-3.83.36-5.17,1.08-1.34.72-2.01,1.77-2.01,3.16,0,1.31.63,2.31,1.89,2.99,1.26.68,2.85,1.01,4.76,1.01,1.53,0,3.26-.23,5.19-.69,1.38-.33,2.7-.78,3.97-1.36.85-.39,1.83.02,2.19.9l3.52,8.48c.3.71.11,1.56-.48,2.04-1.4,1.14-2.83,2.08-4.27,2.84-1.78.94-3.56,1.66-5.34,2.18-1.78.52-3.56.87-5.34,1.04-1.78.18-3.57.27-5.37.27-2.87,0-5.65-.36-8.35-1.07-2.7-.72-5.08-1.88-7.15-3.49-2.07-1.61-3.73-3.7-4.99-6.27-1.26-2.57-1.89-5.72-1.89-9.46s.63-6.84,1.89-9.29c1.26-2.45,2.93-4.4,4.99-5.85,2.07-1.45,4.45-2.48,7.15-3.08,2.7-.6,5.48-.9,8.35-.9,4.28,0,8.13.55,11.54,1.64,3.02.97,5.92,2.53,8.71,4.68.62.48.82,1.37.5,2.1-.66,1.53-1.26,2.92-1.81,4.17-.31.68-.6,1.34-.89,2-.29.66-.54,1.25-.75,1.76,0,0,0,.01,0,.02-.36.89-1.36,1.28-2.2.9-1.17-.53-2.39-.93-3.67-1.21Z"/>
        <path class="cls-1" d="M65.6,49.41c-3.29,0-6.53-.42-9.64-1.24-3.34-.89-6.35-2.36-8.94-4.38-2.66-2.07-4.81-4.77-6.4-8.01-1.6-3.25-2.41-7.17-2.41-11.67s.82-8.43,2.45-11.58c1.63-3.16,3.84-5.73,6.56-7.65,2.6-1.83,5.61-3.13,8.94-3.87,3.04-.67,6.22-1.01,9.43-1.01,4.78,0,9.18.63,13.07,1.88,3.56,1.14,7,2.99,10.23,5.48,2.44,1.89,3.27,5.19,2.04,8.05l-1.81,4.17c-.33.74-.62,1.38-.9,2.02-.27.61-.5,1.16-.69,1.64-.18.44-.4.85-.66,1.24.24.36.45.75.62,1.16l3.52,8.48c1.14,2.76.34,5.98-1.95,7.84-1.66,1.34-3.37,2.48-5.09,3.38-2.07,1.09-4.18,1.95-6.27,2.56-2.06.6-4.16,1.01-6.23,1.22-1.93.2-3.9.29-5.87.29ZM65.6,10c-2.49,0-4.94.26-7.27.78-2.03.45-3.84,1.22-5.35,2.28-1.41.99-2.53,2.32-3.42,4.05-.89,1.72-1.34,4.07-1.34,6.99s.46,5.39,1.38,7.26c.93,1.9,2.11,3.38,3.58,4.54,1.54,1.2,3.29,2.06,5.35,2.6,3.78,1.01,7.95,1.06,11.93.66,1.47-.15,2.96-.44,4.44-.87,1.45-.42,2.93-1.03,4.41-1.8.5-.26.99-.55,1.49-.88l-1.32-3.17c-.54.16-1.08.31-1.63.44-5.59,1.33-10.09,1.03-13.47-.79-2.88-1.54-4.53-4.24-4.53-7.39s1.7-5.99,4.65-7.57c3.36-1.8,7.93-2.17,13.57-.96h0c.49.11.97.23,1.45.36.15-.33.3-.67.45-1l.74-1.71c-1.67-1.06-3.38-1.87-5.12-2.43-2.9-.93-6.26-1.4-10-1.4ZM82.75,17.71s0,0,0,0c0,0,0,0,0,0Z"/>
      </g>
      <g>
        <path class="cls-1" d="M122.64,43.81h-33.03c-.86,0-1.56-.73-1.56-1.63V7.22c0-.9.7-1.63,1.56-1.63h31.6c.86,0,1.56.73,1.56,1.63v8.69c0,.9-.7,1.63-1.56,1.63h-14.22v1.19h9.34c.86,0,1.56.73,1.56,1.63v8.69c0,.9-.7,1.63-1.56,1.63h-9.34v1.19h15.66c.86,0,1.56.73,1.56,1.63v8.69c0,.9-.7,1.63-1.56,1.63Z"/>
        <path class="cls-1" d="M122.64,48.81h-33.03c-3.62,0-6.56-2.97-6.56-6.62V7.22c0-3.65,2.94-6.62,6.56-6.62h31.6c3.62,0,6.56,2.97,6.56,6.62v8.69c0,3.07-2.07,5.65-4.88,6.4v4.56c3.5.13,6.31,3.05,6.31,6.62v8.69c0,3.65-2.94,6.62-6.56,6.62ZM93.04,38.81h26.16v-1.94h-17.22v-11.19h10.9v-1.94h-10.9v-11.19h15.78v-1.94h-24.72v28.22Z"/>
      </g>
      <g>
        <path class="cls-1" d="M166.83,43.81h-16.24c-.68,0-1.28-.46-1.49-1.13l-3.67-12h-.57v11.51c0,.9-.7,1.63-1.56,1.63h-15.82c-.86,0-1.56-.73-1.56-1.63V7.22c0-.9.7-1.63,1.56-1.63h16.24c.68,0,1.28.46,1.49,1.13l3.67,12h.57V7.22c0-.9.7-1.63,1.56-1.63h15.82c.86,0,1.56.73,1.56,1.63v34.97c0,.9-.7,1.63-1.56,1.63Z"/>
        <path class="cls-1" d="M166.83,48.81h-16.24c-1.34,0-2.6-.4-3.66-1.11-1.04.7-2.29,1.11-3.64,1.11h-15.82c-3.62,0-6.56-2.97-6.56-6.62V7.22c0-3.65,2.94-6.62,6.56-6.62h16.24c1.34,0,2.6.4,3.66,1.11,1.04-.7,2.29-1.11,3.64-1.11h15.82c3.62,0,6.56,2.97,6.56,6.62v34.97c0,3.65-2.94,6.62-6.56,6.62ZM153.15,38.81h10.24V10.6h-8.94v13.14h-9.27l-4.02-13.14h-10.24v28.22h8.94v-13.14h9.27l4.02,13.14Z"/>
      </g>
      <g>
        <path class="cls-1" d="M203.56,17.54h-4.62c-.86,0-1.56.73-1.56,1.63v23.02c0,.9-.7,1.63-1.56,1.63h-15.82c-.86,0-1.56-.73-1.56-1.63v-23.02c0-.9-.7-1.63-1.56-1.63h-5.2c-.86,0-1.56-.73-1.56-1.63V7.22c0-.9.7-1.63,1.56-1.63h31.89c.86,0,1.56.73,1.56,1.63v8.69c0,.9-.7,1.63-1.56,1.63Z"/>
        <path class="cls-1" d="M195.81,48.81h-15.82c-3.62,0-6.56-2.97-6.56-6.62v-19.65h-1.76c-3.62,0-6.56-2.97-6.56-6.62V7.22c0-3.65,2.94-6.62,6.56-6.62h31.89c3.62,0,6.56,2.97,6.56,6.62v8.69c0,3.65-2.94,6.62-6.56,6.62h-1.19v19.65c0,3.65-2.94,6.62-6.56,6.62ZM183.43,38.81h8.94v-19.65c0-3.65,2.94-6.62,6.56-6.62h1.19v-1.94h-25.01v1.94h1.76c3.62,0,6.56,2.97,6.56,6.62v19.65Z"/>
      </g>
      <g>
        <path class="cls-1" d="M16,74.77H6.34c-3.49,0-6.34-2.84-6.34-6.34v-21.25c0-3.49,2.84-6.34,6.34-6.34h11c2.26,0,4.38.21,6.31.61,2.2.46,4.17,1.25,5.86,2.34,1.89,1.22,3.38,2.85,4.44,4.83,1.05,1.96,1.58,4.28,1.58,6.9s-.52,4.91-1.53,6.8c-1,1.86-2.33,3.37-3.95,4.49-1.49,1.03-3.15,1.76-4.92,2.18-.98.23-1.95.39-2.91.47-.58,3.06-3.1,5.3-6.21,5.3ZM10,64.77h2.41c.22-1.43.94-2.75,2.03-3.72.02-.02.04-.04.06-.05-.14-.1-.26-.19-.37-.28l-1.79-1.5v-7.3l1.28-1.06h-3.62v13.92ZM22.68,51.54c.32.48.58,1.01.76,1.6.26.85.39,1.64.39,2.43s-.13,1.58-.39,2.44c-.14.44-.32.86-.54,1.24.54-.13,1.02-.35,1.46-.65.31-.22.59-.55.83-1,.1-.19.34-.77.34-2.06,0-.94-.14-1.7-.4-2.18-.26-.49-.6-.86-1.06-1.16-.4-.26-.86-.47-1.39-.65ZM13.89,55.04s-.06.2-.06.53.06.53.06.53c.53,1.72,2.27,2.97,4.12,2.97.41,0,1.47-.09,2.52-.97l-1.02-1.23-2.63.39.14-1.44.17-2.23,2.34.66,1.02-1.22c-.73-.61-1.68-.98-2.54-.98-1.85,0-3.59,1.25-4.12,2.98h0Z"/>
        <path class="cls-1" d="M17.34,45.85c1.92,0,3.68.17,5.29.5,1.61.34,3,.88,4.17,1.64,1.17.76,2.09,1.76,2.75,2.99s.99,2.75.99,4.54-.31,3.27-.93,4.43c-.62,1.16-1.42,2.08-2.39,2.75-.97.67-2.04,1.15-3.21,1.42-1.17.27-2.31.41-3.4.41-.6,0-1.18-.03-1.74-.09,0,0-.01,0-.02,0-.79-.09-1.5.5-1.5,1.3v2.37c0,1.05-.6,1.65-1.34,1.65H6.34c-.74,0-1.34-.6-1.34-1.34v-21.25c0-.74.6-1.34,1.34-1.34h11ZM18.83,55.57c0-.27-.06-.59-.17-.95-.11-.36-.33-.54-.65-.54-.3,0-.52.06-.67.19v2.62c.15.12.37.19.67.19.32,0,.54-.18.65-.54.11-.36.17-.68.17-.95Z"/>
      </g>
      <g>
        <path class="cls-1" d="M53.59,69.77h-21.71c-.51,0-.92-.41-.92-.92v-22.09c0-.51.41-.92.92-.92h20.78c.51,0,.92.41.92.92v5.64c0,.51-.41.92-.92.92h-9.36v.75h6.18c.51,0,.92.41.92.92v5.64c0,.51-.41.92-.92.92h-6.18v.75h10.3c.51,0,.92.41.92.92v5.64c0,.51-.41.92-.92.92Z"/>
        <path class="cls-1" d="M53.59,74.77h-21.71c-3.26,0-5.92-2.65-5.92-5.92v-22.09c0-3.26,2.65-5.92,5.92-5.92h20.78c3.26,0,5.92,2.65,5.92,5.92v5.64c0,2.24-1.25,4.19-3.09,5.2,2.34.79,4.03,3.01,4.03,5.61v5.64c0,3.26-2.65,5.92-5.92,5.92ZM35.96,64.77h2.34v-13.92h-2.34v13.92Z"/>
      </g>
      <g>
        <path class="cls-1" d="M79.75,74.77h-8.23c-.94,0-1.84-.19-2.65-.54-.81.35-1.71.54-2.65.54h-8.84c-3.72,0-6.75-3.03-6.75-6.75v-20.42c0-3.72,3.03-6.75,6.75-6.75h10.59c.81,0,1.74.04,2.78.1,1.18.08,2.39.25,3.59.52,1.28.28,2.56.69,3.8,1.23,1.48.64,2.82,1.53,3.99,2.64,1.25,1.18,2.24,2.64,2.96,4.33.71,1.67,1.07,3.62,1.07,5.78,0,2.77-.55,5.16-1.62,7.09-.04.07-.07.13-.11.2.5.71.93,1.42,1.29,2.12,1.13,2.17,1.05,4.63-.18,6.65-1.24,2.04-3.4,3.26-5.79,3.26ZM60.63,64.77h2.34v-12.86l1.28-1.06h-3.62v13.92ZM72.11,60.88l.1.12c.53.65.96,1.38,1.34,2.26.02.05.04.1.06.14-.14-1.79.43-3.64,1.72-5.07.17-.18.32-.41.46-.66.09-.15.36-.76.36-2.22,0-1.07-.17-1.64-.28-1.88-.18-.42-.39-.75-.63-.98-.32-.31-.68-.54-1.09-.72-.28-.12-.56-.23-.85-.33.32.47.57,1.01.75,1.59.26.85.39,1.64.39,2.43s-.13,1.58-.39,2.44c-.37,1.19-1.06,2.17-1.95,2.88ZM64.52,55.04s-.06.2-.06.53.06.53.06.53c.53,1.72,2.27,2.97,4.12,2.97.41,0,1.47-.09,2.52-.97l-1.02-1.23-2.32.6-.95-1.69.69-2.39,2.59.86,1.02-1.22c-.73-.61-1.68-.98-2.54-.98-1.85,0-3.59,1.25-4.12,2.98h0Z"/>
        <path class="cls-1" d="M71.52,69.77c-.88,0-1.6-.66-1.74-1.53,0,0,0-.01,0-.02-.09-.54-.2-1.06-.34-1.57-.14-.51-.3-.98-.49-1.42-.19-.44-.39-.79-.62-1.07h-.37v3.86c0,.97-.78,1.75-1.75,1.75h-8.84c-.97,0-1.75-.78-1.75-1.75v-20.42c0-.97.78-1.75,1.75-1.75h10.59c.7,0,1.51.03,2.45.09s1.89.2,2.86.41c.97.21,1.93.52,2.88.93.95.41,1.79.97,2.54,1.68.75.71,1.35,1.59,1.79,2.65s.67,2.34.67,3.83c0,1.92-.33,3.47-.99,4.65-.33.59-.71,1.12-1.13,1.59-.63.69-.6,1.73.05,2.4.26.26.5.53.72.82.6.77,1.08,1.52,1.46,2.24.02.03.03.06.05.09.6,1.15-.28,2.52-1.57,2.52h-8.23ZM67.96,56.87c.15.12.37.19.67.19.32,0,.54-.18.65-.54.11-.36.17-.68.17-.95s-.06-.59-.17-.95c-.11-.36-.33-.54-.65-.54-.3,0-.52.06-.67.19v2.62Z"/>
      </g>
      <g>
        <path class="cls-1" d="M97,57.81c0,.82.41,1.45,1.23,1.87.82.42,1.86.64,3.1.64h1.01l-.2-1.32c-.09-.63.39-1.19,1.03-1.19h7.26c.57,0,1.04.46,1.04,1.04v8.98c0,.49-.33.91-.81,1.01-.6.13-1.27.26-2.03.39-1.12.19-2.32.35-3.59.49s-2.56.24-3.87.32c-1.31.07-2.54.11-3.68.11-1.87,0-3.68-.22-5.44-.67-1.76-.45-3.31-1.18-4.65-2.19-1.35-1.01-2.43-2.32-3.25-3.92-.82-1.61-1.23-3.58-1.23-5.92s.41-4.28,1.23-5.81c.82-1.53,1.91-2.75,3.25-3.66,1.35-.91,2.9-1.55,4.65-1.93,1.76-.37,3.57-.56,5.44-.56,2.79,0,5.3.34,7.51,1.03,1.98.61,3.88,1.59,5.7,2.95.39.29.52.82.32,1.26l-2.29,5.08c-.23.51-.83.76-1.34.53-.78-.35-1.61-.61-2.47-.79-1.2-.25-2.28-.37-3.25-.37-1.37,0-2.49.22-3.36.67-.87.45-1.31,1.11-1.31,1.98Z"/>
        <path class="cls-1" d="M97.49,75.14c-2.28,0-4.52-.28-6.67-.83-2.39-.61-4.55-1.63-6.42-3.03-1.95-1.47-3.54-3.37-4.7-5.65-1.18-2.31-1.78-5.07-1.78-8.2s.61-5.92,1.83-8.18c1.21-2.25,2.84-4.08,4.86-5.44,1.87-1.27,4.03-2.17,6.41-2.67,2.09-.44,4.27-.67,6.48-.67,3.28,0,6.3.42,8.99,1.25,2.51.78,4.94,2.03,7.21,3.71,2.25,1.68,3.05,4.76,1.89,7.32l-.84,1.86c1.07,1.09,1.73,2.58,1.73,4.22v8.98c0,2.85-1.95,5.28-4.73,5.9-.68.15-1.44.29-2.29.44-1.23.21-2.53.38-3.88.53-1.34.14-2.73.26-4.12.34-1.41.08-2.75.12-3.97.12ZM97.49,50.47c-1.51,0-2.99.15-4.4.45-1.13.24-2.08.63-2.89,1.18-.67.45-1.21,1.07-1.65,1.88-.42.78-.64,1.97-.64,3.45s.23,2.76.68,3.65c.48.93,1.07,1.65,1.8,2.2.82.61,1.77,1.05,2.89,1.34,1.34.34,2.76.52,4.2.52.48,0,.99,0,1.51-.02-1.11-.19-2.13-.53-3.05-1-2.47-1.27-3.94-3.63-3.94-6.31s1.47-5.11,4.02-6.43c.75-.39,1.58-.68,2.47-.89-.33-.01-.67-.02-1.01-.02Z"/>
      </g>
      <g>
        <path class="cls-1" d="M128.66,69.77c-.88,0-1.6-.66-1.74-1.53,0,0,0-.01,0-.02-.09-.54-.2-1.06-.34-1.57-.14-.51-.3-.98-.49-1.42-.19-.44-.39-.79-.62-1.07h-.37v3.86c0,.97-.78,1.75-1.75,1.75h-8.84c-.97,0-1.75-.78-1.75-1.75v-20.42c0-.97.78-1.75,1.75-1.75h10.59c.7,0,1.51.03,2.45.09s1.89.2,2.86.41c.97.21,1.93.52,2.88.93.95.41,1.79.97,2.54,1.68.75.71,1.35,1.59,1.79,2.65s.67,2.34.67,3.83c0,1.92-.33,3.47-.99,4.65-.33.59-.71,1.12-1.13,1.59-.63.69-.6,1.73.05,2.4.26.26.5.53.72.82.6.77,1.08,1.52,1.46,2.24.02.03.03.06.05.09.6,1.15-.28,2.52-1.57,2.52h-8.23ZM125.11,56.87c.15.12.37.19.67.19.32,0,.54-.18.65-.54.11-.36.17-.68.17-.95s-.06-.59-.17-.95c-.11-.36-.33-.54-.65-.54-.3,0-.52.06-.67.19v2.62Z"/>
        <path class="cls-1" d="M136.89,74.77h-8.23c-.94,0-1.84-.19-2.65-.54-.81.35-1.71.54-2.65.54h-8.84c-3.72,0-6.75-3.03-6.75-6.75v-20.42c0-3.72,3.03-6.75,6.75-6.75h10.59c.81,0,1.74.04,2.78.1,1.18.08,2.39.25,3.59.52,1.28.28,2.56.69,3.8,1.23,1.48.64,2.82,1.53,3.99,2.64,1.25,1.18,2.24,2.64,2.96,4.33.71,1.67,1.07,3.62,1.07,5.78,0,2.77-.55,5.16-1.62,7.09-.04.07-.07.13-.11.2.5.71.93,1.42,1.29,2.12,1.13,2.17,1.05,4.63-.18,6.65-1.24,2.04-3.4,3.26-5.79,3.26ZM139.89,65.05s0,0,0,0c0,0,0,0,0,0ZM117.77,64.77h2.34v-12.86l1.28-1.06h-3.62v13.92ZM129.26,60.88l.1.12c.53.65.96,1.38,1.34,2.26.02.05.04.1.06.14-.14-1.79.43-3.64,1.73-5.07.16-.18.32-.4.46-.66.09-.15.36-.76.36-2.22,0-1.07-.17-1.64-.28-1.88-.18-.42-.39-.75-.63-.98-.32-.31-.68-.54-1.09-.72-.28-.12-.56-.23-.85-.33.32.47.57,1.01.75,1.59.26.85.39,1.64.39,2.43s-.13,1.58-.39,2.44c-.37,1.19-1.06,2.17-1.95,2.88ZM121.66,55.04s-.06.2-.06.53.06.53.06.53c.53,1.72,2.27,2.97,4.12,2.97.41,0,1.47-.09,2.52-.97l-1.02-1.23-2.32.6-.6-1.91.6-1.8,2.34.49,1.02-1.22c-.73-.61-1.68-.98-2.54-.98-1.85,0-3.59,1.25-4.12,2.98h0Z"/>
      </g>
      <g>
        <path class="cls-1" d="M140.14,67.61l6.1-20.56c.21-.71.87-1.2,1.61-1.2h13.93c.75,0,1.4.49,1.61,1.2l6.1,20.56c.32,1.08-.49,2.16-1.61,2.16h-9.7c-.86,0-1.58-.64-1.67-1.5h0c-.1-.85-.82-1.5-1.67-1.5h-.06c-.86,0-1.58.64-1.67,1.5h0c-.1.85-.82,1.5-1.67,1.5h-9.7c-1.13,0-1.93-1.08-1.61-2.16ZM154.08,59.3h1.5l-.56-4.11h-.37l-.56,4.11Z"/>
        <path class="cls-1" d="M167.9,74.77h-9.7c-1.23,0-2.38-.33-3.37-.91-.99.58-2.15.91-3.37.91h-9.7c-2.1,0-4.1-1-5.36-2.69-1.25-1.68-1.65-3.89-1.05-5.9l6.1-20.56c.84-2.82,3.47-4.78,6.41-4.78h13.94c2.94,0,5.57,1.97,6.41,4.78l6.1,20.56c.6,2.01.2,4.22-1.05,5.9-1.26,1.68-3.26,2.69-5.36,2.69ZM144.94,69.03h0s0,0,0,0ZM161.49,67.71s0,0,0,0c0,0,0,0,0,0ZM148.16,67.71s0,0,0,0c0,0,0,0,0,0ZM160.42,64.77h3.03l-3.86-13,1.71,12.53h-1.22c.12.15.23.31.34.47ZM146.2,64.77h3.02c.11-.16.22-.32.34-.47h-1.21l1.71-12.53-3.86,13Z"/>
      </g>
      <g>
        <path class="cls-1" d="M183.58,69.77c-.83,0-1.52-.64-1.57-1.47l-.46-6.75h-.37l-.46,6.75c-.06.83-.74,1.47-1.57,1.47h-7.29c-.92,0-1.64-.78-1.57-1.7l1.62-20.77c.06-.82.75-1.45,1.57-1.45h10.59c.8,0,1.48.6,1.57,1.4l.78,6.82h.37l.78-6.82c.09-.8.76-1.4,1.57-1.4h10.59c.82,0,1.51.63,1.57,1.45l1.62,20.77c.07.92-.65,1.7-1.57,1.7h-7.29c-.83,0-1.52-.64-1.57-1.47l-.46-6.75h-.37l-.46,6.75c-.06.83-.74,1.47-1.57,1.47h-6.03Z"/>
        <path class="cls-1" d="M201.34,74.77h-7.29c-.78,0-1.52-.14-2.22-.39-.7.25-1.44.39-2.22.39h-6.03c-.78,0-1.52-.14-2.22-.39-.7.25-1.44.39-2.22.39h-7.29c-1.83,0-3.59-.77-4.83-2.11s-1.87-3.16-1.73-4.98l1.62-20.77c.26-3.4,3.15-6.06,6.56-6.06h10.59c.89,0,1.75.18,2.53.5.78-.33,1.64-.5,2.53-.5h10.59c3.41,0,6.29,2.66,6.56,6.07l1.62,20.77c.14,1.82-.49,3.64-1.73,4.98s-3,2.11-4.83,2.11ZM197.25,64.77h.39l-1.09-13.92h-4.37l-.65,5.7h5.15l.56,8.22ZM175.56,64.77h.39l.56-8.22h5.15l-.65-5.7h-4.37l-1.09,13.92ZM186.39,59.07l.2,2.98.2-2.98h-.41Z"/>
      </g>
      <path class="cls-3" d="M16.13,6.61c3.54-1.59,6.91-1.61,9.87-1.61,1.76,0,3.48.18,5.17.54,1.68.36,3.17.9,4.45,1.61,1.28.72,2.31,1.62,3.1,2.72.78,1.09,1.18,2.38,1.18,3.85,0,1.79-.58,3.35-1.75,4.69-1.04,1.19-2.44,2.31-4.2,3.36-.28.16-.27.57,0,.73,2.68,1.52,4.58,3.08,5.72,4.69,1.22,1.73,1.84,3.61,1.84,5.64,0,2.23-.58,4.08-1.75,5.55-1.17,1.47-2.69,2.66-4.56,3.55-1.88.9-4.01,1.53-6.4,1.91-2.39.38-4.81.57-7.26.57-1.91,0-3.64-.1-5.19-.3-1.55-.2-2.96-.45-4.22-.75-1.97-.47-2.96-.69-3.5-1.04-2.02-1.33-3.73-4.96-2.24-7.95,1.07-2.16,3.53-3.43,5.31-3.16.52.08.93.26,2.38.54.84.16,1.64.24,2.41.24.83,0,1.54-.12,2.11-.36.74-.32,1.25-1.14,1.14-1.96-.07-.49-.31-.88-.73-1.17-.87-.59-1.92-.75-1.92-.75-1.51-.2-1.74.22-2.65.05-1.2-.23-2.64-1.32-2.64-2.54,0-1.27,1.53-2.31,2.68-2.62,1.04-.28,1.41.12,2.89-.32.06-.02,1.03-.33,1.75-1.01.42-.4.63-.88.63-1.43,0-.68-.3-1.13-.89-1.37-.59-.24-1.29-.36-2.09-.36-.65,0-1.33.06-2.04.18-1.32.22-1.65.38-2.07.42-1.7.17-4.07-1.89-4.39-3.88-.56-3.44,4.92-6.92,7.86-8.24Z"/>
      <path class="cls-2" d="M77.02,21.06c-1.84-.4-3.5-.6-4.99-.6-2.1,0-3.83.36-5.17,1.08-1.34.72-2.01,1.77-2.01,3.16,0,1.31.63,2.31,1.89,2.99,1.26.68,2.85,1.01,4.76,1.01,1.53,0,3.26-.23,5.19-.69,1.38-.33,2.7-.78,3.97-1.36.85-.39,1.83.02,2.19.9l3.52,8.48c.3.71.11,1.56-.48,2.04-1.4,1.14-2.83,2.08-4.27,2.84-1.78.94-3.56,1.66-5.34,2.18-1.78.52-3.56.87-5.34,1.04-1.78.18-3.57.27-5.37.27-2.87,0-5.65-.36-8.35-1.07-2.7-.72-5.08-1.88-7.15-3.49-2.07-1.61-3.73-3.7-4.99-6.27-1.26-2.57-1.89-5.72-1.89-9.46s.63-6.84,1.89-9.29c1.26-2.45,2.93-4.4,4.99-5.85,2.07-1.45,4.45-2.48,7.15-3.08,2.7-.6,5.48-.9,8.35-.9,4.28,0,8.13.55,11.54,1.64,3.02.97,5.92,2.53,8.71,4.68.62.48.82,1.37.5,2.1-.66,1.53-1.26,2.92-1.81,4.17-.31.68-.6,1.34-.89,2-.29.66-.54,1.25-.75,1.76,0,0,0,.01,0,.02-.36.89-1.36,1.28-2.2.9-1.17-.53-2.39-.93-3.67-1.21Z"/>
      <path class="cls-2" d="M122.64,43.81h-33.03c-.86,0-1.56-.73-1.56-1.63V7.22c0-.9.7-1.63,1.56-1.63h31.6c.86,0,1.56.73,1.56,1.63v8.69c0,.9-.7,1.63-1.56,1.63h-14.22v1.19h9.34c.86,0,1.56.73,1.56,1.63v8.69c0,.9-.7,1.63-1.56,1.63h-9.34v1.19h15.66c.86,0,1.56.73,1.56,1.63v8.69c0,.9-.7,1.63-1.56,1.63Z"/>
      <path class="cls-2" d="M166.83,43.81h-16.24c-.68,0-1.28-.46-1.49-1.13l-3.67-12h-.57v11.51c0,.9-.7,1.63-1.56,1.63h-15.82c-.86,0-1.56-.73-1.56-1.63V7.22c0-.9.7-1.63,1.56-1.63h16.24c.68,0,1.28.46,1.49,1.13l3.67,12h.57V7.22c0-.9.7-1.63,1.56-1.63h15.82c.86,0,1.56.73,1.56,1.63v34.97c0,.9-.7,1.63-1.56,1.63Z"/>
      <path class="cls-2" d="M203.56,17.54h-4.62c-.86,0-1.56.73-1.56,1.63v23.02c0,.9-.7,1.63-1.56,1.63h-15.82c-.86,0-1.56-.73-1.56-1.63v-23.02c0-.9-.7-1.63-1.56-1.63h-5.2c-.86,0-1.56-.73-1.56-1.63V7.22c0-.9.7-1.63,1.56-1.63h31.89c.86,0,1.56.73,1.56,1.63v8.69c0,.9-.7,1.63-1.56,1.63Z"/>
      <path class="cls-2" d="M17.02,45.85c1.92,0,3.68.17,5.29.5,1.61.34,3,.88,4.17,1.64,1.17.76,2.09,1.76,2.75,2.99s.99,2.75.99,4.54-.31,3.27-.93,4.43c-.62,1.16-1.42,2.08-2.39,2.75-.97.67-2.04,1.15-3.21,1.42-1.17.27-2.31.41-3.4.41-.6,0-1.18-.03-1.74-.09,0,0-.01,0-.02,0-.79-.09-1.5.5-1.5,1.3v2.37c0,1.05-.6,1.65-1.34,1.65H6.02c-.74,0-1.34-.6-1.34-1.34v-21.25c0-.74.6-1.34,1.34-1.34h11ZM19.52,56.31c.06-.26,0-2.81-.17-3.18-.16-.34-.84-.54-1.17-.54-.3,0-1.02.06-1.17.19v4.85c.15.12.95.19,1.25.19.32,0,.97-.18,1.08-.54.11-.36.11-.69.17-.95Z"/>
      <path class="cls-2" d="M53.59,69.77h-21.71c-.51,0-.92-.41-.92-.92v-22.09c0-.51.41-.92.92-.92h20.78c.51,0,.92.41.92.92v5.64c0,.51-.41.92-.92.92h-9.36v.75h6.18c.51,0,.92.41.92.92v5.64c0,.51-.41.92-.92.92h-6.18v.75h10.3c.51,0,.92.41.92.92v5.64c0,.51-.41.92-.92.92Z"/>
      <path class="cls-2" d="M71.52,69.77c-.88,0-1.6-.66-1.74-1.53,0,0,0-.01,0-.02-.09-.54-.2-1.06-.34-1.57-.14-.51-.3-.98-.49-1.42-.19-.44-.39-.79-.62-1.07h-.37v3.86c0,.97-.78,1.75-1.75,1.75h-8.84c-.97,0-1.75-.78-1.75-1.75v-20.42c0-.97.78-1.75,1.75-1.75h10.59c.7,0,1.51.03,2.45.09s1.89.2,2.86.41c.97.21,1.93.52,2.88.93.95.41,1.79.97,2.54,1.68.75.71,1.35,1.59,1.79,2.65s.67,2.34.67,3.83c0,1.92-.33,3.47-.99,4.65-.33.59-.71,1.12-1.13,1.59-.63.69-.6,1.73.05,2.4.26.26.5.53.72.82.6.77,1.08,1.52,1.46,2.24.02.03.03.06.05.09.6,1.15-.28,2.52-1.57,2.52h-8.23ZM67.96,56.87c.15.12.37.19.67.19.32,0,.54-.18.65-.54.11-.36.17-.68.17-.95s-.06-.59-.17-.95c-.11-.36-.33-.54-.65-.54-.3,0-.52.06-.67.19v2.62Z"/>
      <path class="cls-3" d="M97,57.81c0,.82.41,1.45,1.23,1.87.82.42,1.86.64,3.1.64h1.01l-.2-1.32c-.09-.63.39-1.19,1.03-1.19h7.26c.57,0,1.04.46,1.04,1.04v8.98c0,.49-.33.91-.81,1.01-.6.13-1.27.26-2.03.39-1.12.19-2.32.35-3.59.49s-2.56.24-3.87.32c-1.31.07-2.54.11-3.68.11-1.87,0-3.68-.22-5.44-.67-1.76-.45-3.31-1.18-4.65-2.19-1.35-1.01-2.43-2.32-3.25-3.92-.82-1.61-1.23-3.58-1.23-5.92s.41-4.28,1.23-5.81c.82-1.53,1.91-2.75,3.25-3.66,1.35-.91,2.9-1.55,4.65-1.93,1.76-.37,3.57-.56,5.44-.56,2.79,0,5.3.34,7.51,1.03,1.98.61,3.88,1.59,5.7,2.95.39.29.52.82.32,1.26l-2.29,5.08c-.23.51-.83.76-1.34.53-.78-.35-1.61-.61-2.47-.79-1.2-.25-2.28-.37-3.25-.37-1.37,0-2.49.22-3.36.67-.87.45-1.31,1.11-1.31,1.98Z"/>
      <path class="cls-3" d="M128.66,69.77c-.88,0-1.6-.66-1.74-1.53,0,0,0-.01,0-.02-.09-.54-.2-1.06-.34-1.57-.14-.51-.3-.98-.49-1.42-.19-.44-.39-.79-.62-1.07h-.37v3.86c0,.97-.78,1.75-1.75,1.75h-8.84c-.97,0-1.75-.78-1.75-1.75v-20.42c0-.97.78-1.75,1.75-1.75h10.59c.7,0,1.51.03,2.45.09s1.89.2,2.86.41c.97.21,1.93.52,2.88.93.95.41,1.79.97,2.54,1.68.75.71,1.35,1.59,1.79,2.65s.67,2.34.67,3.83c0,1.92-.33,3.47-.99,4.65-.33.59-.71,1.12-1.13,1.59-.63.69-.6,1.73.05,2.4.26.26.5.53.72.82.6.77,1.08,1.52,1.46,2.24.02.03.03.06.05.09.6,1.15-.28,2.52-1.57,2.52h-8.23ZM125.11,56.87c.15.12.37.19.67.19.32,0,.54-.18.65-.54.11-.36.17-.68.17-.95s-.06-.59-.17-.95c-.11-.36-.33-.54-.65-.54-.3,0-.52.06-.67.19v2.62Z"/>
      <path class="cls-3" d="M140.14,67.61l6.1-20.56c.21-.71.87-1.2,1.61-1.2h13.93c.75,0,1.4.49,1.61,1.2l6.1,20.56c.32,1.08-.49,2.16-1.61,2.16h-9.7c-.86,0-1.58-.64-1.67-1.5h0c-.1-.85-.82-1.5-1.67-1.5h-.06c-.86,0-1.58.64-1.67,1.5h0c-.1.85-.82,1.5-1.67,1.5h-9.7c-1.13,0-1.93-1.08-1.61-2.16ZM154.08,59.3h1.5l-.56-4.11h-.37l-.56,4.11Z"/>
      <path class="cls-3" d="M183.58,69.77c-.83,0-1.52-.64-1.57-1.47l-.46-6.75h-.37l-.46,6.75c-.06.83-.74,1.47-1.57,1.47h-7.29c-.92,0-1.64-.78-1.57-1.7l1.62-20.77c.06-.82.75-1.45,1.57-1.45h10.59c.8,0,1.48.6,1.57,1.4l.78,6.82h.37l.78-6.82c.09-.8.76-1.4,1.57-1.4h10.59c.82,0,1.51.63,1.57,1.45l1.62,20.77c.07.92-.65,1.7-1.57,1.7h-7.29c-.83,0-1.52-.64-1.57-1.47l-.46-6.75h-.37l-.46,6.75c-.06.83-.74,1.47-1.57,1.47h-6.03Z"/>
    </g>
  </g>
</svg>