<svg id="Group_382" data-name="Group 382" xmlns="http://www.w3.org/2000/svg" xmlns:xlink="http://www.w3.org/1999/xlink" width="375" height="35.417" viewBox="0 0 375 35.417">
  <defs>
    <clipPath id="clip-path">
      <rect id="Rectangle_172" data-name="Rectangle 172" width="375" height="35.417" transform="translate(0 0)" fill="#ffecd1"/>
    </clipPath>
  </defs>
  <g id="Group_381" data-name="Group 381" clip-path="url(#clip-path)">
    <path id="Path_3402" data-name="Path 3402" d="M0,15.445a5.073,5.073,0,0,0,1.355.122c1.335.009,2.219.865,2.835.836a3.805,3.805,0,0,0,1.476-.613,2.991,2.991,0,0,1,1.312-1.858c1.169-.811,2.531.212,3.042.542l2.146,1.388c.409.265,2.294-.084,2.294-.084l1.125.727,1.232-.058L19.978,14.5a9.05,9.05,0,0,1,1.506-.023,5.779,5.779,0,0,0,1.713-.317l.345-.489.653-.291c.652-.291,1.124.727,1.124.727l1.125.727.511.331c.511.331,2.432-.28,2.432-.28l1.987-.283.967-1.369,3.448,1.233L41.82,13.1a16,16,0,0,1,2.431-.28c.719.037,2.982-.637,3.427-.634s2.1-1.493,2.647-1.85A8.531,8.531,0,0,1,53.276,9.1c.959-.092,2.76,1.785,3.067,1.983a17.88,17.88,0,0,0,2.837.41l1.022.661,1.064-.452s1.172-1.237,1.788-1.266.791-.486,1.614-.809.851.693,1.431.925a15,15,0,0,0,3.451.807c2.017.307,1.918-.185,1.918-.185l.414-.587.484-.684,1.13-.124a12.979,12.979,0,0,1,3.18.347,14.942,14.942,0,0,1,2.263-.674,16.11,16.11,0,0,1,1.644-.219c1.644-.219,1.677-.055,1.677-.055a7.316,7.316,0,0,1,2.1-1.494,12.008,12.008,0,0,1,3.526-.142c1.984.143,2.434-.706,4.25-.956s3.826.907,5.777.886,1.744.273,1.744.273l2.16-.74,3.578,2.314c.307.2.923.17,2.122-.052s1.2-.222,1.506-.024,1.542-.285,1.987-.283a30.211,30.211,0,0,1,3.219-.34,6.566,6.566,0,0,0,1.917-.185l2.249,1.455c.511.331,1.437.074,2.329-.346s.508.756,1.125.728a.415.415,0,0,0,.414-.587l.688-.552a5.089,5.089,0,0,1,1.755-.8l.511.331,1.257.749a14.068,14.068,0,0,0,1.942,1.256c.682.3,0,0,.445,0s.55-.357,1.064-.452.79-.486,1.41-.941.511.331.511.331a14.16,14.16,0,0,1,1.641.207c.923.169,1.47.238,1.47.238l.959-.092c.959-.092.995-.354.995-.354l.959-.092.691-.978a3.591,3.591,0,0,1,1.851-.512,22.213,22.213,0,0,1,3.8.318,12.105,12.105,0,0,0,4.142-.171,24.8,24.8,0,0,0,4.319-1.054,4.979,4.979,0,0,1,2.639-.573c1.335.008,6.015,1.183,6.529,1.088S163.923,7,163.923,7l.715.463.514-.1a3.656,3.656,0,0,1,1.677-.056c.478.167,1.235-.484,1.235-.484l1.44-.351a8.24,8.24,0,0,0,2.359.244c1.506-.024,1.537.566,2.633.278s1.635,1.058,1.635,1.058a5.314,5.314,0,0,0,1.47.238,9.73,9.73,0,0,0,2.227-.412c1.268-.32,1.061-.026,1.777.436s.829-1.174.829-1.174l2.417-1.1,1.457.046a14.5,14.5,0,0,0,3.517,1.135,17.593,17.593,0,0,0,3.081-.145,9.779,9.779,0,0,1,1.1-.288,9.075,9.075,0,0,1,3.075.706c1.058.4,1.13-.124,1.882.077a1.372,1.372,0,0,0,1.268-.32,4.643,4.643,0,0,1,2.4-.444,15.765,15.765,0,0,0,2.6-.312c1.232-.058.586-.619,1.89-1.2s1-.78,2.374-1.884.715.462,1.328.859,5.493,2.555,5.868,2.655a3.935,3.935,0,0,1,1.022.661l.621-.247a6.238,6.238,0,0,0,1.578-1.181,1.318,1.318,0,0,1,.926-.256l.52-.736a18.449,18.449,0,0,0,4.131-.789,7.943,7.943,0,0,1,2.857-.46s.315-1.079.622-.88,1.782-.415,1.782-.415l.583-.193c.583-.193,2.862,1.851,2.862,1.851a2.939,2.939,0,0,0,1.572.3,3.639,3.639,0,0,1,1.879.5s2.633.278,3.078.281.926-.257,1.232-.058L244.41,6.9c.715.463,0,0,.649.135a9.88,9.88,0,0,0,2.636-.148,3.243,3.243,0,0,1,1.915.241c.478.166,1.608.043,2.973.213s1.1-.286,1.1-.286,1.3-.581,2.059-.806a31.993,31.993,0,0,1,3.835-.37l2.768.508,3.489.119.445,0c.445,0,1.13-.124,2.191-.15a4.909,4.909,0,0,1,2.152.537,17.877,17.877,0,0,1,2.147,1.388l1.4-.09c1.4-.089,1-.78,3.156-1.094s1.984.143,3.589.611a11.537,11.537,0,0,1,3,1.23c.511.331,2.843-.441,2.843-.441a26.5,26.5,0,0,0,3.246.675,6.287,6.287,0,0,0,1.335.008,1.734,1.734,0,0,1,1.335.008l.511.331,3,1.23,2.965,1.917a2.751,2.751,0,0,0,1.437.074L302.536,14a4.691,4.691,0,0,0,2.152.537c1.265.106.682.3,1.776.437s2.15.963,3.006.8,1.53,1.417,2.658,1.719,1.7.96,2.7.606a12.592,12.592,0,0,0,2.68-1.686c.859-.584.82.1,1.95-.021s3.087,2,3.087,2l3.53,1.285.716.463,1.022.661c.614.4,0,0,1-.354s.511.331.511.331l1.227.793,2.326.08.514-.1c.514-.1,2.045,1.322,2.351,1.52l.613.4a5.736,5.736,0,0,0,2.053.045c1.028-.19,2.365-.608,2.365-.608l.818.529,1.437.074a9.612,9.612,0,0,1,3.006.8l1.227.793,1.575-.122,1.022.661,1.028-.19c1.028-.19.749.627,1.635,1.058a5.579,5.579,0,0,1,1.227.793l1.329.859a3.462,3.462,0,0,0,1.337-.418,4.7,4.7,0,0,1,1.782-.415l.563-.165c.563-.165.426.662,1.738,1.124s1.178.863,2.269,1.426.34.362,1.124.727,2.2-1,2.2-1a8.248,8.248,0,0,0,1.945.83,16.9,16.9,0,0,1,3.545,2.15l.677,1.15A4.227,4.227,0,0,0,375,35.417V0H0Z" transform="translate(0 0)" fill="#ffecd1"/>
  </g>
</svg>
