<svg id="Group_416" data-name="Group 416" xmlns="http://www.w3.org/2000/svg" xmlns:xlink="http://www.w3.org/1999/xlink" width="301" height="17.196" viewBox="0 0 301 17.196">
  <defs>
    <clipPath id="clip-path">
      <rect id="Rectangle_174" data-name="Rectangle 174" width="301" height="17.196" fill="#ffecd1"/>
    </clipPath>
  </defs>
  <g id="Group_384" data-name="Group 384" clip-path="url(#clip-path)">
    <path id="Path_3403" data-name="Path 3403" d="M0,6.842A2.84,2.84,0,0,1,.736,6.32a2.641,2.641,0,0,0,.754-.573L2.469,5,3,4.6l1.057-.8S5.329,2.82,5.937,2.372,8.012.909,8.012.909A2.326,2.326,0,0,1,8.992.164c.468-.1,1.073.09,1.344.013S11.589,0,11.589,0s.032.493.319.663.894,1,1.483.942.365.757.365.757l.979-.745.575.339,1.13-.86L17.2.523A1.866,1.866,0,0,0,18.766.364c.8-.478,1.186,2.461,1.186,2.461A10.044,10.044,0,0,0,21.587,4.3c.363.112,3.125-.566,4.787-.535a2.857,2.857,0,0,0,2.248-.675S31.074,4.327,31.5,4.135l3.353-.092L37.792,3.1l.867,1.8,1.616-.065L45.5,4.352l1.953,1.49,2.114-.314L50.923,4.5l.6-.458.452-.344.877.11,1.666,1.32.9-.688.71-.022,1.6-.311,1.319,1.455,2.254,1.26s.512-.648.829-.63,1.344.013,1.344.013l.274.568,1.483.942,1.481.3.876.11,1.616-.065.73,1.514a2.823,2.823,0,0,0,1.618.58c.664-.117.274.568.274.568l1.406.354.41.852.228.474,3.619-2.1.319.663,2.508.292,3.567.78s1.166.924,1.438.846,1.846,1.054,2.163,1.071,1.723.371,1.723.371l1.83.807L93.91,12.94a6.151,6.151,0,0,1,2.036-.9c.272-.078,1.692-.122,2.356-.239a18.491,18.491,0,0,0,1.823-.491s1.511-1.138,2.039-1.539,1.687-1.412,2.443-1.34,2.052-.655,2.445-.695,1.511.144,2.342.159,1.011-.251,1.011-.251l2.253.615a7.541,7.541,0,0,1,2.431-.3c.605.187.377-.286.377-.286s1.374-.139,1.511.145.862.508.862.508l.757.717.754-.573,1.206-.917,1.666,1.32s.863.508,1.089.336.575.339.575.339l1.3-.082a6.771,6.771,0,0,0,1.694.523,4.453,4.453,0,0,1,1.027-.005l1.812-.085,1.658-1.26c.377-.286.787.566.787.566a8.849,8.849,0,0,0,1.557.454c.423.023.513-.218.513-.218s.692-.914,1.055-.8,1.055-.8,1.055-.8l.452-.344a5.95,5.95,0,0,0,.938.451,18.163,18.163,0,0,1,2.131.578c.651.281.9-.688.9-.688s2.475-.847,2.943-.944,1.8-.331,1.8-.331l.877.11.8.167.6-.458.754-.573.3-.229.226-.172a11.378,11.378,0,0,1,2.128-.712c.468-.1,0,0,.648-.363a9.683,9.683,0,0,1,2.853-.488c.589-.06.319.663.984.545s1.138,1.721,1.592,2.022S158.758,8,158.984,7.824a9.193,9.193,0,0,1,2.155-.038l.757-.575,1.063.328,1.23-.935a5.573,5.573,0,0,1,2.751.344c.779.544.851-.647.851-.647l1.705-.485.662-.5a5.657,5.657,0,0,1,1.7-.484,1.818,1.818,0,0,1,1.063.328s1.234.685,1.518.469a5.968,5.968,0,0,1,1.877-.128s1.02-1.1,1.513-1.151,1.514-1.151,1.8-1.366,1.633.707,1.633.707l1.324-1.007L184.2,1.458c.284-.216,2.848,1.082,2.848,1.082l1.8-.556,1.725-.175,1.516-.341,1.289-.006a14.952,14.952,0,0,1,1.725-.175l1.157.257,1.73,1.444,1.4.232.567-.431.4.832,1.063.328L202,5.135l.662-.5c.662-.5.859,1.783.859,1.783l.344.713s1.254.994,2.143.156,1.083.638,1.083.638l.473-.359s1.464,1.16,2.2,1.085c0,0,.891-.028,1.289-.006a8.349,8.349,0,0,1,1.309.3l1.608-1.223,1.419-1.078,3.028.918a1.667,1.667,0,0,1,1.145-.844c.739-.075,1.078-.982,1.419-1.078a5.725,5.725,0,0,0,1.2-.912l.692-.526,1.514-1.151.627.5c.627.5.757-.576.757-.576l.968.4,1.309.3L229.464,2.6l.946-.719,1.71,1.135.473-.36.946-.719,1.631-.1.572,1.188s2.375,1.441,3.209,1.294l1.041-.791,1.421-.269.344.713a32.007,32.007,0,0,0,3.649,2.745c.607.188.851-.647.851-.647l1.347.112.567-.431.874.472,1.135-.863.8,1.664.757-.575.662-.5.286.594,1.2.876L255.4,6.258l.816.354s1.424.541,1.879.682l1.215.375s1.175-.244,2.407-.369a19.8,19.8,0,0,0,3.032-.682l1.063.328s1.581,2.208,2.074,2.157,1.934-.009,1.934-.009a11.67,11.67,0,0,1,1.7-1.294,9.3,9.3,0,0,1,1.688.016l1.269-.316.341-.1c.341-.1,1.083.638,1.083.638l.757-.576.473-.36,1.12.448.8.854c.8.854.662-.5.662-.5l1.446,1.661.662-.5.4.832.757-.575.851-.647,2.176-1.654s.137,1.357.8,1.663,0,0,.284-.216,1.391-.065,1.391-.065l2.4-.382.169-.453.508-1.36a1.1,1.1,0,0,1,.757-.576s2.452,1.87,2.718,2.155,1.461.35,1.461.35l1.135-.863.931.591.851-.647.757-.576.831.49V17.2H0Z" transform="translate(0 0)" fill="#ffecd1"/>
  </g>
</svg>
