<svg id="Group_417" data-name="Group 417" xmlns="http://www.w3.org/2000/svg" xmlns:xlink="http://www.w3.org/1999/xlink" width="301" height="13.764" viewBox="0 0 301 13.764">
  <defs>
    <clipPath id="clip-path">
      <rect id="Rectangle_174" data-name="Rectangle 174" width="301" height="13.764" fill="#ffecd1"/>
    </clipPath>
  </defs>
  <g id="Group_384" data-name="Group 384" transform="translate(0 0)" clip-path="url(#clip-path)">
    <path id="Path_3403" data-name="Path 3403" d="M0,8.287a2.934,2.934,0,0,0,.736.418,2.647,2.647,0,0,1,.754.458l.979.6L3,10.081l1.057.638s1.276.788,1.884,1.146,2.075,1.171,2.075,1.171a2.312,2.312,0,0,0,.979.6c.468.078,1.073-.072,1.344-.01s1.253.142,1.253.142a.69.69,0,0,1,.319-.53c.287-.136.894-.8,1.483-.754s.365-.606.365-.606l.979.6.575-.271,1.13.688.753.458a2.288,2.288,0,0,1,1.571.127c.8.383,1.186-1.97,1.186-1.97a9.617,9.617,0,0,1,1.636-1.178c.363-.09,3.125.453,4.787.429a3.284,3.284,0,0,1,2.248.541s2.451-.993,2.873-.839l3.353.074,2.943.755.867-1.439,1.616.052,5.225.385,1.953-1.192,2.114.252,1.356.825.6.367.452.275.877-.088L54.52,9.663l.9.55.71.018,1.6.249,1.319-1.164,2.254-1.009s.512.519.829.5,1.344-.01,1.344-.01l.274-.454,1.483-.754,1.481-.237.876-.088,1.616.052.73-1.212a3.256,3.256,0,0,1,1.618-.465c.664.094.274-.455.274-.455l1.406-.283.41-.682.228-.379L77.5,5.53,77.816,5l2.508-.233,3.567-.624s1.166-.74,1.438-.678,1.846-.844,2.163-.858,1.723-.3,1.723-.3l1.83-.646L93.91,3.407a7.037,7.037,0,0,0,2.036.721c.272.062,1.692.1,2.356.191s1.823.393,1.823.393,1.511.911,2.039,1.232a5.494,5.494,0,0,0,2.443,1.072,12.391,12.391,0,0,1,2.445.556c.392.032,1.511-.115,2.342-.127s1.011.2,1.011.2l2.253-.493a9.313,9.313,0,0,0,2.431.238c.605-.15.377.229.377.229s1.374.112,1.511-.116.862-.407.862-.407l.757-.574.754.458,1.206.734L122.22,6.66s.863-.407,1.089-.269.575-.271.575-.271l1.3.066a8.042,8.042,0,0,1,1.694-.419,5.556,5.556,0,0,0,1.027,0l1.812.068,1.658,1.009c.377.229.787-.453.787-.453a10.566,10.566,0,0,1,1.557-.364c.423-.019.513.174.513.174s.692.732,1.055.642,1.055.642,1.055.642l.452.275a6.667,6.667,0,0,1,.938-.361c.363-.09,1.481-.237,2.131-.463s.9.55.9.55,2.475.678,2.943.755,1.8.265,1.8.265l.877-.088.8-.134.6.367.754.458.3.183.226.138a13.429,13.429,0,0,0,2.128.57c.468.078,0,0,.648.291a11.892,11.892,0,0,0,2.853.391c.589.048.319-.53.984-.437s1.138-1.378,1.592-1.619,1.485-1.27,1.711-1.133a11.469,11.469,0,0,0,2.155.031l.757.46,1.063-.263,1.23.748a6.882,6.882,0,0,0,2.751-.275c.779-.436.851.518.851.518l1.705.388.662.4a6.744,6.744,0,0,0,1.7.388,2.118,2.118,0,0,0,1.063-.263s1.234-.548,1.518-.375a7.424,7.424,0,0,0,1.877.1,4.592,4.592,0,0,0,1.513.921c.493.04,1.514.921,1.8,1.094s1.633-.566,1.633-.566l1.324.806,1.608.979c.284.173,2.848-.866,2.848-.866l1.8.445,1.725.14,1.516.273,1.289,0s1.08.138,1.725.14l1.157-.205,1.73-1.156,1.4-.185.567.345.4-.666,1.063-.263L202,9.654l.662.4c.662.4.859-1.427.859-1.427l.344-.57s1.254-.8,2.143-.125,1.083-.51,1.083-.51l.473.287a5.527,5.527,0,0,1,2.2-.868s.891.022,1.289,0a10.125,10.125,0,0,0,1.309-.243l1.608.979,1.419.863,3.028-.735a1.64,1.64,0,0,0,1.145.675c.739.06,1.078.786,1.419.863a5.758,5.758,0,0,1,1.2.73l.692.421,1.514.921.627-.4c.627-.4.757.461.757.461l.968-.32,1.309-.243,1.419.863.946.576,1.71-.909.473.288.946.576,1.631.082.572-.951s2.375-1.154,3.209-1.036l1.041.633,1.421.215.344-.571a32.4,32.4,0,0,1,3.649-2.2c.607-.15.851.518.851.518l1.347-.09.567.345.874-.378,1.135.691.8-1.332.757.46.662.4.286-.476,1.2-.7,1.513.921.816-.283s1.424-.433,1.879-.545l1.215-.3s1.175.2,2.407.3a24.04,24.04,0,0,1,3.032.545L265.81,8.2s1.581-1.767,2.074-1.727,1.934.008,1.934.008a11.769,11.769,0,0,0,1.7,1.036,11.605,11.605,0,0,0,1.688-.012l1.269.253.341.078c.341.078,1.083-.511,1.083-.511l.757.461.473.288,1.12-.358.8-.683c.8-.683.662.4.662.4l1.446-1.329.662.4.4-.666.757.46.851.518,2.176,1.324s.137-1.086.8-1.331,0,0,.284.172a3.916,3.916,0,0,0,1.391.052l2.4.306.169.363.508,1.089c.169.363.757.461.757.461s2.452-1.5,2.718-1.725a4.189,4.189,0,0,1,1.461-.28l1.135.691.931-.473.851.518.757.461L301,8.06V0H0Z" transform="translate(0 0)" fill="#ffecd1"/>
  </g>
</svg>
