<svg id="Group_383" data-name="Group 383" xmlns="http://www.w3.org/2000/svg" xmlns:xlink="http://www.w3.org/1999/xlink" width="301" height="35.49" viewBox="0 0 301 35.49">
  <defs>
    <clipPath id="clip-path">
      <rect id="Rectangle_172" data-name="Rectangle 172" width="301" height="35.49" fill="#ffecd1"/>
    </clipPath>
  </defs>
  <g id="Group_381" data-name="Group 381" clip-path="url(#clip-path)">
    <path id="Path_3402" data-name="Path 3402" d="M301,20.014a3.3,3.3,0,0,0-1.088-.122c-1.071-.009-1.781-.867-2.275-.838a2.792,2.792,0,0,0-1.184.614A3.16,3.16,0,0,1,295.4,21.53c-.938.813-2.032-.212-2.442-.543L291.235,19.6c-.328-.265-1.841.084-1.841.084l-.9-.729-.989.058-2.537,1.95a5.827,5.827,0,0,1-1.209.023,3.843,3.843,0,0,0-1.375.318l-.277.49-.524.291c-.523.292-.9-.729-.9-.729l-.9-.729-.41-.331c-.41-.331-1.952.28-1.952.28l-1.595.283-.776,1.372-2.768-1.235-4.842,1.374a10.417,10.417,0,0,1-1.952.28c-.577-.037-2.393.638-2.75.636s-1.683,1.5-2.125,1.854a6.2,6.2,0,0,1-2.369,1.229c-.769.093-2.215-1.789-2.461-1.987a11.7,11.7,0,0,0-2.277-.411l-.821-.662-.854.453s-.941,1.24-1.435,1.269-.635.487-1.3.81-.683-.694-1.149-.927a10.126,10.126,0,0,0-2.77-.809c-1.619-.308-1.539.185-1.539.185l-.333.588-.388.686-.907.125a8.461,8.461,0,0,1-2.552-.347,10.315,10.315,0,0,1-1.817.675,10.525,10.525,0,0,1-1.32.22c-1.319.22-1.346.055-1.346.055s-1.133,1.369-1.683,1.5a7.763,7.763,0,0,1-2.83.142c-1.592-.143-1.954.707-3.411.958s-3.071-.909-4.637-.888-1.4-.273-1.4-.273l-1.734.742-2.872-2.319c-.246-.2-.741-.17-1.7.053s-.962.222-1.209.024-1.238.286-1.595.283a19.621,19.621,0,0,1-2.584.341,4.283,4.283,0,0,0-1.539.185l-1.805-1.458c-.41-.331-1.153-.074-1.87.347s-.408-.758-.9-.729-.333.588-.333.588l-.552.553a3.718,3.718,0,0,1-1.408.8l-.41-.331-1.009-.751a11.42,11.42,0,0,0-1.559-1.259c-.547-.3,0,0-.357,0s-.441.358-.854.453-.634.487-1.131.943-.41-.331-.41-.331a9.213,9.213,0,0,1-1.317-.207c-.741-.169-1.18-.239-1.18-.239l-.769.093c-.77.093-.8.355-.8.355l-.77.093-.555.98a2.511,2.511,0,0,1-1.486.513,14.378,14.378,0,0,1-3.047-.318,7.824,7.824,0,0,0-3.325.172,16.721,16.721,0,0,0-3.466,1.056,3.347,3.347,0,0,1-2.118.574c-1.071-.008-4.828-1.185-5.24-1.09a17.8,17.8,0,0,0-1.679.644l-.574-.464-.413.1a2.37,2.37,0,0,1-1.346.056c-.383-.167-.991.485-.991.485L164.945,29a5.383,5.383,0,0,0-1.894-.244c-1.209.024-1.233-.567-2.114-.279s-1.313-1.06-1.313-1.06a3.513,3.513,0,0,0-1.18-.239,6.425,6.425,0,0,0-1.788.413c-1.018.32-.851.027-1.426-.437s-.665,1.176-.665,1.176l-1.94,1.1-1.169-.046a10.157,10.157,0,0,0-2.823-1.137,11.337,11.337,0,0,0-2.473.145,6.653,6.653,0,0,1-.88.289,6.085,6.085,0,0,1-2.468-.708c-.85-.4-.907.124-1.511-.077a.973.973,0,0,0-1.018.32,3.137,3.137,0,0,1-1.925.445c-1.291-.042-1.1.254-2.089.312s-.47.62-1.517,1.2-.8.781-1.905,1.888-.574-.463-1.066-.861-4.409-2.56-4.71-2.661a3.207,3.207,0,0,1-.821-.662l-.5.248a5.286,5.286,0,0,0-1.267,1.183.9.9,0,0,1-.743.257l-.417.737a12.212,12.212,0,0,0-3.316.791,5.221,5.221,0,0,1-2.293.461s-.253,1.081-.5.882-1.431.416-1.431.416l-.468.193c-.468.193-2.3-1.855-2.3-1.855a1.994,1.994,0,0,0-1.262-.3,2.527,2.527,0,0,1-1.508-.5s-2.113-.279-2.47-.281-.743.257-.989.058l-1.969-1.59c-.574-.464,0,0-.521-.135a6.382,6.382,0,0,0-2.116.148,2.148,2.148,0,0,1-1.537-.241c-.384-.167-1.291-.043-2.386-.213s-.883.287-.883.287a16.547,16.547,0,0,1-1.652.808,20.729,20.729,0,0,1-3.079.37l-2.222-.509-2.8-.12-.357,0c-.357,0-.907.124-1.759.151a3.348,3.348,0,0,1-1.727-.538,14.481,14.481,0,0,1-1.723-1.391l-1.127.09c-1.126.089-.8.781-2.533,1.1s-1.592-.143-2.881-.613a8.393,8.393,0,0,1-2.411-1.232c-.411-.331-2.282.442-2.282.442a17.664,17.664,0,0,0-2.605-.676,4.049,4.049,0,0,0-1.071-.008s-.661.323-1.071-.008l-.41-.331-2.41-1.232L60.876,22.8c-.328-.265-1.153-.075-1.153-.075l-1.559-1.258a3.215,3.215,0,0,0-1.728-.538c-1.016-.107-.547-.3-1.426-.438s-1.725-.965-2.413-.806-1.228-1.42-2.133-1.722S49.1,17,48.3,17.354a10.1,10.1,0,0,0-2.151,1.69c-.69.586-.658-.1-1.566.021s-2.478-2-2.478-2L39.27,15.777l-.575-.464-.82-.662c-.492-.4,0,0-.8.355s-.41-.331-.41-.331l-.985-.795-1.867-.08-.412.1c-.413.1-1.641-1.325-1.887-1.524l-.492-.4a3.711,3.711,0,0,0-1.648-.045,16.9,16.9,0,0,0-1.9.609l-.656-.53-1.153-.075a6.6,6.6,0,0,1-2.413-.806l-.985-.8L21,10.453l-.82-.662-.825.191c-.825.191-.6-.628-1.313-1.06a4.543,4.543,0,0,1-.985-.8L16,7.265a2.375,2.375,0,0,0-1.073.418,3.146,3.146,0,0,1-1.431.416l-.452.165c-.452.165-.342-.663-1.4-1.126S10.7,6.273,9.823,5.709s-.273-.363-.9-.729-1.763,1-1.763,1A6.075,6.075,0,0,0,5.6,5.152,13.489,13.489,0,0,1,2.751,3L2.208,1.845A3.43,3.43,0,0,0,0,0V35.49H301Z" transform="translate(0 0)" fill="#ffecd1"/>
  </g>
</svg>
