<svg id="Page-1" xmlns="http://www.w3.org/2000/svg" width="19.043" height="19.043" viewBox="0 0 19.043 19.043">
  <g id="Dribbble-Light-Preview">
    <g id="icons">
      <path id="spotify-_162_" data-name="spotify-[#162]" d="M99.154,7327.441c-3.069-1.823-8.131-1.991-11.062-1.1a.891.891,0,0,1-.517-1.7c3.364-1.021,8.955-.824,12.489,1.273a.891.891,0,0,1-.909,1.533Zm-.1,2.7a.744.744,0,0,1-1.022.245,12.5,12.5,0,0,0-9.487-1.109.742.742,0,1,1-.431-1.421,13.892,13.892,0,0,1,10.7,1.266.742.742,0,0,1,.245,1.02Zm-1.165,2.592a.593.593,0,0,1-.816.2c-2.236-1.367-5.05-1.675-8.365-.918a.593.593,0,1,1-.264-1.157c3.627-.829,6.737-.472,9.247,1.062a.593.593,0,0,1,.2.816ZM93.522,7319a9.522,9.522,0,1,0,9.522,9.521A9.522,9.522,0,0,0,93.522,7319Z" transform="translate(-84 -7319)" fill="#ffecd1" fill-rule="evenodd"/>
    </g>
  </g>
</svg>
