<svg xmlns="http://www.w3.org/2000/svg" width="16.591" height="19.093" viewBox="0 0 16.591 19.093">
  <path id="tiktok-svgrepo-com" d="M11.684,1.02C12.726,1,13.761,1.012,14.8,1a4.942,4.942,0,0,0,1.394,3.319h0a5.584,5.584,0,0,0,3.356,1.423h.018V8.953a8.485,8.485,0,0,1-3.394-.794l.052.022A9.8,9.8,0,0,1,14.9,7.419l.033.022c-.008,2.323.008,4.647-.016,6.962a6.057,6.057,0,0,1-1.087,3.154l.013-.02a5.931,5.931,0,0,1-4.693,2.554H9.138c-.078,0-.171.006-.264.006a5.776,5.776,0,0,1-3.008-.84l.025.015a6.014,6.014,0,0,1-2.9-4.517l0-.026c-.016-.4-.024-.8-.008-1.186a6,6,0,0,1,5.96-5.4,6.062,6.062,0,0,1,1.021.087l-.036-.005c.016,1.177-.032,2.355-.032,3.532a2.682,2.682,0,0,0-.9-.154,2.731,2.731,0,0,0-2.575,1.822l-.006.019a3.089,3.089,0,0,0-.134.908,3.262,3.262,0,0,0,.024.388v-.015a2.712,2.712,0,0,0,2.675,2.286c.039,0,.077,0,.115,0H9.081a2.673,2.673,0,0,0,2.2-1.27l.006-.011a1.82,1.82,0,0,0,.325-.835v-.009c.08-1.424.048-2.84.055-4.265.008-3.206-.008-6.405.016-9.6Z" transform="translate(-2.97 -1.004)" fill="#ffecd1"/>
</svg>
